# xmcd
#
# Track frame offsets: 
#        150
#        12425
#        32950
#        50965
#        70250
#        80325
#        99275
#        125750
#        140475
#        157250
#
# Disc length: 2333 seconds
#
# Revision: 0
# Processed by: cddbd v1.5.1PL2 Copyright (c) Steve Scherf et al.
# Submitted via: ExactAudioCopy v0.95b3
#
DISCID=90091b0a
DTITLE=Bullfrog Tayler Band - What about the frog?
DYEAR=1994
DGENRE=Blues
TTITLE0=Watching the river flow
TTITLE1=Roadhouse Blues
TTITLE2=10th Avenue Tango
TTITLE3=Statesboro Blues
TTITLE4=Big Ten Inch Record
TTITLE5=Hideaway
TTITLE6=Congo Square
TTITLE7=Little Red Rooster
TTITLE8=Good time feeling
TTITLE9=Going back to Louisiana
EXTD=
EXTT0=
EXTT1=
EXTT2=
EXTT3=
EXTT4=
EXTT5=
EXTT6=
EXTT7=
EXTT8=
EXTT9=
PLAYORDER=
